<svg width="53" height="136" viewBox="0 0 53 136" fill="none" xmlns="http://www.w3.org/2000/svg">
<path fill-rule="evenodd" clip-rule="evenodd" d="M33.0858 39.7551V39.6765H29.9015V39.7551H33.0858ZM33.1635 49.576V52.5615H33.5518V49.576H33.1635Z" fill="#FFBE26"/>
<path d="M29.9792 13.1993H33.3965V16.5777H36.4255V19.7204H39.9205V23.0988H43.2601V29.6199H46.4445V39.6765H43.0271V46.119H39.8428V49.576H33.5518H33.1635V52.5615V52.7972H10.019V49.576C10.019 49.5131 7.74084 49.5498 6.60164 49.576V46.3547H3.33965V33.234H6.6793V43.0549H10.0966V46.3547H16.5429V43.0549H19.8826V39.5194H16.5429V36.4552H10.0966V32.9197H6.6793V23.0202H9.94129V16.5777H13.3586V19.799H16.6983V29.8556H20.0379V33.0768H26.5619V36.4552H29.9015V39.6765V39.7551H33.0858V39.6765V29.6199H29.9792V26.5557H26.6395V23.0988H23.2999V19.7204H20.0379V6.83536H23.2222V3.45696H26.6395V0H29.9792V13.1993Z" fill="#FFBE26"/>
<path d="M20.0379 66.2322H52.9684V56.0185H20.0379V59.3183H3.57265V62.7753H0V72.989H9.94129V69.5321H20.0379V66.2322Z" fill="#FFBE26"/>
<path d="M13.3586 72.989H20.0379V136H16.4653V132.543H13.3586V122.486H9.94129V105.83H6.52397V82.8885H3.10665V76.2888H13.3586V72.989Z" fill="#FFBE26"/>
<path d="M43.0271 109.287H40.0758V115.73H36.8138V119.187H33.5518V122.486H30.2899V125.943H26.4065V129.4H23.1446V115.887H26.4065V112.587H29.6685V105.83H33.2412V99.3876H36.5032V79.7458H22.8339V69.5321H49.8618V89.4882H46.2891V102.687H43.0271V109.287Z" fill="#FFBE26"/>
</svg>
